<?xml version="1.0" encoding="utf-8"?>
<!-- Generator: Adobe Illustrator 24.2.1, SVG Export Plug-In . SVG Version: 6.00 Build 0)  -->
<svg version="1.1" id="Layer_1" xmlns="http://www.w3.org/2000/svg" xmlns:xlink="http://www.w3.org/1999/xlink" x="0px" y="0px"
	 viewBox="0 0 16 16" style="enable-background:new 0 0 16 16;" xml:space="preserve">
<style type="text/css">
	.st0{fill:#FFFFFF;}
</style>
<desc>Created with Sketch.</desc>
<g id="Page-1">
	<g id="show-icon-active">
		<g transform="translate(1.000000, 2.000000)">
			<path id="Combined-Shape" class="st0" d="M13.5,4.4c0.6,0.9,0.7,2.4,0,3.3c0,0-2,3.9-6.5,3.9S0.5,7.6,0.5,7.6
				c-0.6-0.9-0.7-2.4,0-3.3c0,0,2-3.9,6.5-3.9S13.5,4.4,13.5,4.4z M7,10c2.2,0,4-1.8,4-4S9.2,2,7,2S3,3.8,3,6S4.8,10,7,10z"/>
			<circle id="Oval" class="st0" cx="7" cy="6" r="2"/>
		</g>
	</g>
</g>
</svg>
