<?xml version="1.0" encoding="utf-8"?>
<!-- Generator: Adobe Illustrator 24.2.1, SVG Export Plug-In . SVG Version: 6.00 Build 0)  -->
<svg version="1.1" id="Layer_1" xmlns="http://www.w3.org/2000/svg" xmlns:xlink="http://www.w3.org/1999/xlink" x="0px" y="0px"
	 viewBox="0 0 16 16" style="enable-background:new 0 0 16 16;" xml:space="preserve">
<style type="text/css">
	.st0{fill-rule:evenodd;clip-rule:evenodd;fill:#FFFFFF;}
</style>
<desc>Created with Sketch.</desc>
<g id="Page-1">
	<g id="hide-icon-active">
		<g id="Combined-Shape" transform="translate(1.000000, 1.000000)">
			<path class="st0" d="M2.1,10.6C1,9.6,0.5,8.6,0.5,8.6c-0.6-0.9-0.7-2.4,0-3.3c0,0,2-3.9,6.5-3.9c1.3,0,2.4,0.3,3.3,0.8L12,0.7
				l0.7,0.7L1.4,12.7L0.7,12L2.1,10.6z M9.1,3.6C8.5,3.2,7.8,3,7,3C4.8,3,3,4.8,3,7c0,0.8,0.2,1.5,0.6,2.1l1.5-1.5C5,7.4,5,7.2,5,7
				c0-1.1,0.9-2,2-2c0.2,0,0.4,0,0.6,0.1L9.1,3.6z M3.7,11.7L5,10.4C5.6,10.8,6.3,11,7,11c2.2,0,4-1.8,4-4c0-0.7-0.2-1.4-0.6-2
				l1.5-1.5c1.1,1,1.6,1.9,1.6,1.9c0.6,0.9,0.7,2.4,0,3.3c0,0-2,3.9-6.5,3.9C5.7,12.5,4.6,12.2,3.7,11.7z M6.5,8.9l2.5-2.5
				C9,6.6,9,6.8,9,7c0,1.1-0.9,2-2,2C6.8,9,6.6,9,6.5,8.9z"/>
		</g>
	</g>
</g>
</svg>
