<?xml version="1.0" encoding="utf-8"?>
<!-- Generator: Adobe Illustrator 22.1.0, SVG Export Plug-In . SVG Version: 6.00 Build 0)  -->
<svg version="1.1" id="Layer_1" xmlns="http://www.w3.org/2000/svg" xmlns:xlink="http://www.w3.org/1999/xlink" x="0px" y="0px"
	 viewBox="0 0 208 131" style="enable-background:new 0 0 208 131;" xml:space="preserve">
<style type="text/css">
	.st0{fill:#FFFFFF;}
	.st1{fill:#FFAB19;}
	.st2{fill:#FF6680;}
</style>
<title>Scratch Lab - Badge</title>
<desc>Created with Sketch.</desc>
<g id="Symbols">
	<g id="Logo_x2F_Scratch-Lab_x2F_Badge">
		<g id="Scratch-Lab---Badge">
			<g id="Scratch-Logo">
				<path id="Path" class="st0" d="M154.8,94c-2,0.1-3.3,0.3-3.9,0.4c-1.1,0.4-3.2,1.1-6.1,1.1c-3.5,0-7-1.2-9.7-3.4h-2.1
					c-0.7,0-1.4-0.1-2-0.2c-3,1-5.4,1-6.9,1h-0.6c-3.6,0.2-7.2-0.6-10.3-2c-1.5,0.4-2.9,0.6-4.5,0.7l-9.6,0.1
					c-4.3,0.1-8.3-1.6-11.3-4.4c-1.3,0-2.5-0.1-3.7-0.4c-1.6,1.9-3.7,3.4-6.1,4.6c-4.8,2.3-10.3,2.5-15.5,0.4
					c-0.6-0.3-1.2-0.5-1.8-0.8L55,91.9c-0.1,0-0.2,0.1-0.3,0.1c-0.6,0.1-1.1,0.1-1.5,0.1c-0.6,0.4-1.3,0.7-1.8,1
					c-4,1.8-7.4,1.9-9.1,1.9h-0.6c-0.3,0-0.6,0-0.8,0c-4.4,0-8.7-1.2-12.2-3.5c-1.1,0.3-2.2,0.4-3.3,0.5c-2.4,1.6-5.1,2.6-8.1,2.7
					c-0.3,0-0.6,0-1,0c-8.4,0-15.5-6.5-16.1-15v-0.1c0-0.1,0-0.2,0-0.3c-0.1-1.3-0.2-4,0-7.1c0.1-1.5,0.1-3.9,0.1-4.2v-0.1
					c0.1-2.1,0.5-4.2,1.3-6.1c-0.2-2-0.1-4.1,0.1-6.2l0.1-0.6c0.3-1.9,0.7-5.4,2.7-9C7.8,39.8,13.9,36,21,35.8
					c2.2-1.1,4.6-1.6,7-1.6c0.3,0,0.5,0,0.7,0c5.2,0.3,9.7,2.9,12.5,6.9c2.3-2,5.1-3.3,8.2-3.7c6.1-0.9,11.3-1,15.7-0.3
					c2.3-2.1,5.3-3.5,8.5-3.9l6.6-0.9c1-0.1,1.7-0.1,2.3-0.1c3.9,0,7.7,1.5,10.7,4.1c0.1,0,0.3,0,0.4,0l9.8-0.2
					c4.1-0.1,7.8-0.3,8.6-0.4c0.3,0,0.6-0.1,0.9-0.1c0.2,0,0.4,0,0.6,0c3.7,0,7.3,1.3,10.2,3.7c2.7-2,6.1-3.2,9.6-3.2h3.4
					c2.5-1.6,5.4-2.5,8.4-2.6l8.3-0.1h0.1c8.7,0,16,7.1,16.2,15.8c0.1,4-1.4,7.8-3.9,10.8l0.1,7.4c2.2,2.6,3.6,5.9,3.9,9.4
					C170.5,85.7,163.7,93.4,154.8,94z"/>
				<path id="Path_1_" class="st1" d="M154.3,84.9c-3.2,0.2-5.3,0.6-5.8,0.8l-0.4,0.1c-0.7,0.3-1.8,0.7-3.2,0.7
					c-1.6,0-3.3-0.6-4.5-1.8c-0.5-0.4-1-1-1.3-1.5l-5.8-0.1c-1,0-2-0.3-2.9-0.7c-0.4,0.2-0.7,0.4-1.1,0.5c-2.1,1-3.9,1-5.3,1h-0.8
					c-0.1,0-0.3,0-0.4,0c-3.9,0-6.9-1.4-9.1-3.5l0,0c-1.3,1.3-3.1,2.1-5,2.2l-9.6,0.1c-3.4,0-6.3-2.5-7-5.8
					c-1.2,0.8-2.6,1.3-4.1,1.3c-1.5,0-3-0.5-4.2-1.4c-0.3-0.2-0.5-0.4-0.8-0.6c-0.9,0.4-1.8,0.6-2.9,0.6h-0.4
					c-1.1,3.2-2.9,5.1-5.5,6.5c-1.3,0.6-2.7,1-4.2,1c-1.3,0-2.7-0.3-4.1-0.8c-1.3-0.5-2.3-1.2-3.1-2c-0.5,0.2-1.1,0.4-1.6,0.4
					L53.7,83c-0.4,0.1-0.7,0.1-1,0.1c-0.7,0-1.3-0.1-2-0.3c-1.1,1-2.3,1.6-3.3,2.1c-2.1,1-3.9,1-5.3,1h-0.8c-0.2,0-0.3,0-0.4,0
					c-4.6,0-8.1-2-10.3-4.9c-2.1,1.3-4.6,2-7,2c-0.5,0-1.1-0.1-1.6-0.1c-0.1,0.1-0.2,0.3-0.3,0.4c-1.3,1.4-3,2.3-4.9,2.4
					c-0.1,0-0.3,0-0.4,0c-3.7,0-6.8-2.9-7-6.6v-0.1c-0.1-1.2-0.1-3.5,0-6.1c0.1-1.7,0.1-4.6,0.1-4.7l0,0c0.1-1.8,0.7-3.4,1.8-4.6
					c-0.6-1.9-0.7-4.1-0.4-6.8l0.1-0.4c0.2-1.5,0.5-3.9,1.6-6.1c1.8-3.4,5.1-5.3,8.9-5.3c0.3,0,0.4,0,0.7,0c0.4,0,0.8,0.1,1.1,0.1
					c1.3-1.1,2.9-1.8,4.7-1.8h0.1c3.9,0.1,7,3.2,7,7.1v0.2c0,0-0.1,1.3-0.1,2.9c1.3-0.6,2.8-0.9,4.3-0.9c0.7,0,1.4,0.1,2,0.2
					c1.1-1.2,2.5-2,4.1-2.3c0.2-0.4,0.4-0.8,0.8-1.3c1.1-1.5,2.8-2.5,4.7-2.8c1.5-0.2,4.8-0.6,8.1-0.6c4.2,0,7.5,0.6,10.1,1.8
					c0.6-2.8,3-5,6-5.4l6.7-0.9c0.3-0.1,0.6-0.1,1-0.1c2,0,3.9,0.8,5.2,2.2c0.5,0.5,1.2,1.5,1.6,2.4l0.3,0.8
					c1.2-0.9,2.6-1.4,4.2-1.4l9.9-0.2c4.8-0.1,9.1-0.4,9.3-0.4h0.1c0.1,0,0.3,0,0.4,0c1.9,0,3.7,0.8,5.1,2.2c1.1,1.1,1.7,2.4,2,3.9
					c0.2,0,0.4,0,0.6,0c0.7,0,1.4,0.1,2,0.1c1.1-1.2,2.5-2,4.2-2.3c1.3-2,3.5-3.4,6-3.4h6.7c1.3-1.5,3.2-2.5,5.4-2.6l8.2-0.1
					c3.9,0,7,3.1,7.1,7c0,2.8-1.6,5.3-3.9,6.5c0.1,7.7,0.1,12.5,0.1,15.7c2.2,1.1,3.7,3.3,3.9,5.8C161.1,81.3,158.1,84.7,154.3,84.9
					z"/>
				<path id="Path_2_" class="st0" d="M21.7,63.1c-1.8-0.3-2.7-1.5-2.3-5.2l0.1-0.4c0.4-3.2,0.8-3.9,2.3-3.9c0.4,0,1,0.3,1.5,0.8
					c0.5,0.6,1.6,1.3,2.2,2.7c0.4,1.1,0.6,1.7,0.6,2.5l0.1,0.9l0,0c0.1,0.6,0.6,1.1,1.3,1.3c0.8,0.1,1.6-0.4,1.8-1.3
					c0-0.1,0.4-9.8,0.4-10c0-0.9-0.7-1.6-1.5-1.6c-0.9,0-1.6,0.7-1.6,1.5c0,0,0,1.3-0.1,2.7c-1.2-1.3-2.8-2.5-4.6-2.7
					c-4.7-0.3-5.2,4.1-5.5,6.6l-0.1,0.5c-0.6,4.9,1,8,4.9,8.6c4.2,0.6,7,1.6,7,4.2c0,1-0.5,2-1.5,2.9c-1.1,1-2.6,1.4-4,1.1
					c-0.4-0.1-0.8-0.2-1.2-0.3c-0.6-0.3-2-1.1-2.7-2.1c-0.6-0.8-0.8-2.1-0.9-2.9c0-0.4,0-0.6,0-0.6c0-0.9-0.7-1.6-1.5-1.6
					c-0.9,0-1.6,0.7-1.6,1.5c0,0-0.1,3.1-0.1,4.9c-0.2,3,0,5.4,0,5.6c0.1,0.9,0.8,1.5,1.6,1.5c0.9-0.1,1.5-0.8,1.5-1.6
					c0,0-0.1-1.2-0.1-2.9c1.1,0.7,2.7,1.5,4.4,1.7c2.3,0.4,4.7-0.3,6.5-1.8c1.6-1.4,2.5-3.3,2.5-5.2C31.3,64.6,24.8,63.6,21.7,63.1"
					/>
				<path id="Shape" class="st0" d="M65,58.6c-0.1,0.2-0.5,0.6-1,0.8c-0.4,0.3-0.9,0.4-1.4,0.6l-0.8,0.3c-1.1,0.4-2.5,0.8-4.1,1.1
					v-7.1c4.1-0.1,7.7,0.3,8.4,1.5c0.1,0.1,0.1,0.3,0.1,0.4C66.2,56.7,65.7,57.6,65,58.6 M73.8,72.5c-0.8-0.3-1.7,0.2-2,1
					c-0.6,1.8-1,1.9-1.3,2.1c-0.3,0.1-0.8,0.1-1.4-0.1c-0.1-0.1-0.4-0.4-0.5-0.8c-0.3-0.5-0.5-2.7-0.6-3.9c-0.1-4.6-0.9-7.1-2.2-8.5
					c0.9-0.6,1.5-1.3,1.6-1.4v-0.1c1.9-2.5,2.3-4.6,1.3-6.3c-2.5-4.3-13.7-3-17.1-2.5c-0.9,0.1-1.5,0.9-1.3,1.8
					c0.1,0.8,0.9,1.5,1.8,1.3c0.8-0.1,1.6-0.2,2.4-0.3v7.2c-0.3,0-0.5,0-0.8,0c-0.9,0-1.6,0.7-1.6,1.6c0,0.8,0.7,1.6,1.6,1.6
					c0.3,0,0.5,0,0.8,0l0.1,9.1l-2.2,0.3c-0.9,0.1-1.5,0.9-1.3,1.8c0.1,0.9,0.9,1.5,1.8,1.3l7.5-1.1c0.8-0.1,1.5-0.9,1.3-1.8
					c-0.1-0.8-0.9-1.5-1.8-1.3l-2.3,0.3l-0.1-8.9c1.5-0.3,2.9-0.6,4.1-0.9c0,0,0.4-0.1,0.6,0c0.6,0.1,1,0.2,1.3,0.8
					c0.5,0.7,1.1,2.3,1.2,6.3c0,0.8,0.2,3.8,0.8,5.2c0.2,0.4,1,1.8,2.2,2.3c1,0.4,2.4,0.8,3.9,0.1c1.4-0.7,2.2-1.6,3-3.9
					C75.1,73.6,74.6,72.7,73.8,72.5"/>
				<path id="Path_3_" class="st0" d="M129.8,67.6c-0.8,0-1.5,0.7-1.5,1.6l0.1,0.6c0,0.1-0.1,1.3-0.1,1.5c-0.1,0.6-0.3,1.6-0.5,2
					c-0.3,0.4-0.4,0.7-0.9,1.2c-0.3,0.3-0.8,0.6-1.2,0.7c-0.4,0.2-0.8,0.2-1.7,0.2h-1c-4.1,0.1-4.6-3.2-4.6-3.9l-0.1-2.7l0.1-4.2
					c0.2-2.7,0.8-4.5,1.8-5.1c0.7-0.4,1.9-0.3,3.6,0.4c2.1,0.9,3.5,3.1,3.5,3.1c0.4,0.6,1.1,0.9,1.8,0.7c0.7-0.2,1.1-0.8,1.1-1.5
					v-6.7c0-0.9-0.7-1.6-1.6-1.6c-0.9,0-1.6,0.7-1.6,1.6v2.8c-0.6-0.4-1.3-0.9-2.1-1.2c-1-0.4-4-1.6-6.4-0.1c-1.9,1.2-3,3.6-3.2,7.5
					l-0.1,4.4l0.1,2.9c0.2,2.4,2,7,7.9,6.8h0.9c1.1,0,2,0,3-0.5c0.8-0.3,1.6-0.8,2.2-1.5c0.4-0.5,0.9-1,1.3-1.7
					c0.6-1.1,0.9-2.9,0.9-3.2l0.1-1.8l-0.1-0.6C131.4,68.2,130.7,67.5,129.8,67.6"/>
				<path id="Path_4_" class="st0" d="M155.3,77.8c-0.1-0.8-0.8-1.5-1.6-1.5c-0.6,0.1-1.3,0.1-2.2,0.2c0-2.7,0-8-0.1-25.4l2.4-0.1
					c0.9,0,1.5-0.7,1.5-1.6c0-0.9-0.7-1.5-1.6-1.5l-8.1,0.1c-0.9,0-1.5,0.8-1.5,1.6c0,0.9,0.7,1.5,1.6,1.5l2.6-0.1
					c0,3.4,0.1,7.1,0.1,10.8l-9.2,1.5v-9.7h2.5c0.9,0,1.5-0.7,1.5-1.6s-0.7-1.6-1.5-1.6h-8.2c-0.9,0-1.6,0.7-1.6,1.6
					s0.7,1.6,1.6,1.6h2.6L136,74.4l-2.6-0.1c-0.9,0-1.6,0.7-1.6,1.5c0,0.9,0.7,1.6,1.5,1.6l8.4,0.1c0.9,0,1.6-0.7,1.6-1.5
					c0-0.9-0.7-1.6-1.5-1.6l-2.7-0.1v-7.9l9.2-1.5c0,5.9,0.1,9.8,0.1,11.8c-2.2,0.4-3.5,0.6-4.4,1.5c-0.6,0.6-0.5,1.6,0.1,2.2
					c0.6,0.6,1.3,0.3,2.2-0.1l0,0c0.9-0.4,3.9-0.9,7.6-1.1C154.8,79.4,155.4,78.6,155.3,77.8"/>
				<path id="Shape_1_" class="st0" d="M81.2,63.3l1.9-9.3l3.4,8.4L81.2,63.3z M94.8,65.9c-0.4,0.1-1.3,0.6-2.7,1.2l-2-4.9L84.2,48
					c-0.1-0.1-0.4-0.6-0.5-0.8c-0.3-0.4-0.8-0.6-1.3-0.5l-6.7,0.9c-0.9,0.1-1.5,0.9-1.3,1.8c0.1,0.8,0.9,1.5,1.8,1.3
					c0,0,2.5-0.4,4.5-0.6C80.1,53,77.8,64.5,77.1,68l-4.5-0.2c-0.9-0.1-1.6,0.6-1.6,1.5c-0.1,0.9,0.6,1.6,1.5,1.6l7.7,0.4
					c0.9,0.1,1.6-0.6,1.6-1.5c0.1-0.9-0.4-1.6-1.6-1.6l0.4-2.4l7.2-1.2l1.5,3.8c-1.2,0.7-1.9,1.1-2.5,1.8c-0.5,0.7-0.4,1.6,0.3,2.2
					c0.7,0.5,1.6,0.4,2.2-0.3c0.7-1,3.6-2.3,6.5-3.4c0.8-0.3,1.2-1.2,1-2C96.5,66,95.6,65.6,94.8,65.9"/>
				<path id="Path_5_" class="st0" d="M113.5,50.2c-0.1,0-4.6,0.3-9.7,0.4l-9.9,0.1c-0.4,0-0.9,0.2-1.2,0.6
					c-0.3,0.3-0.4,0.8-0.3,1.2l1.2,7.7c0.1,0.8,1,1.5,1.8,1.3c0.8-0.1,1.3-0.8,1.3-1.5c0-0.1-0.6-4-1-6.1c0.4,0,6.6-0.1,6.6-0.1
					l0.1,20.3l-3.3,0.1c-0.9,0-1.6,0.7-1.5,1.6c0,0.9,0.7,1.5,1.6,1.5l9.5-0.1c0.8,0,1.5-0.7,1.5-1.6s-0.7-1.5-1.6-1.5l-3.1,0.1
					V53.7c2.7-0.1,5-0.2,6.5-0.3c-0.1,1.3-0.1,2.3-0.1,3c0,1.6,0.2,2,0.3,2.2c0.4,0.7,1.3,0.9,2,0.6c0.6-0.3,0.9-0.9,0.8-1.6
					c0,0,0-3.5,0.2-5.8c0-0.4-0.1-0.9-0.4-1.2C114.4,50.4,114,50.2,113.5,50.2"/>
				<path id="Path_6_" class="st0" d="M47.9,69.2c-0.8,0-1.5,0.7-1.5,1.6l0.1,0.9c0,0.1,0,1.3,0,1.5c-0.1,0.6-0.3,1.6-0.5,2
					c-0.3,0.4-0.5,0.7-1,1.2c-0.3,0.3-0.8,0.6-1.2,0.8c-0.4,0.2-0.8,0.2-1.7,0.2h-1c-4.1,0.1-4.6-3.2-4.6-3.9l-0.1-2.7l0.1-4.2
					c0.2-2.7,0.8-4.5,1.8-5.1c0.8-0.4,1.9-0.3,3.6,0.4c2.1,0.9,3.5,3.1,3.5,3.1c0.4,0.6,1.1,0.9,1.8,0.7c0.7-0.2,1.1-0.8,1.1-1.5
					v-6.8c0-0.9-0.7-1.6-1.6-1.6c-0.9,0-1.6,0.7-1.6,1.6v2.8c-0.6-0.4-1.3-0.9-2-1.2c-1-0.4-4-1.6-6.4-0.1c-1.9,1.1-3,3.6-3.2,7.5
					v0.1l-0.1,4.2v0.1l0.1,2.7v0.1c0.2,2.4,2,7,7.9,6.8h0.9c1.1,0,2,0,3-0.5c0.8-0.4,1.6-0.8,2.2-1.5c0.4-0.5,0.9-1,1.3-1.7
					c0.6-1.1,0.9-2.9,1-3.2l0.1-1.8l-0.1-0.9C49.5,69.9,48.8,69.2,47.9,69.2"/>
			</g>
			
				<g id="Lab" transform="translate(167.286213, 57.972441) rotate(-10.000000) translate(-167.286213, -57.972441) translate(129.286213, 31.972441)">
				<path id="Path_7_" class="st0" d="M60.4,31.5l-56,0c-5.5,0-10,4.5-10,10l0,32c0,5.5,4.5,10,10,10l56,0c5.5,0,10-4.5,10-10l0-32
					C70.4,36,66,31.5,60.4,31.5z"/>
				<path id="Path_8_" class="st2" d="M60.4,37.5c2.2,0,4,1.8,4,4l0,32c0,2.2-1.8,4-4,4l-56,0c-2.2,0-4-1.8-4-4l0-32
					c0-2.2,1.8-4,4-4L60.4,37.5z"/>
				<path class="st0" d="M25.2,65.6v-3.1h-8.6l0-14.2h-3.6l0,17.3H25.2z M30.6,66c0.9,0,1.7-0.2,2.4-0.6c0.6-0.4,1.1-0.8,1.6-1.3
					c0,0.3,0.1,0.5,0.1,0.8s0.1,0.5,0.2,0.7l0,0h3.6v-0.5c-0.2-0.1-0.4-0.2-0.5-0.4s-0.2-0.5-0.2-0.9c0-0.6,0-1.1,0-1.5l0,0l0-5.9
					c0-1.5-0.5-2.6-1.6-3.1c-1.1-0.6-2.3-0.8-3.7-0.8c-2.1,0-3.7,0.6-4.5,1.7c-0.6,0.7-0.9,1.6-0.9,2.8l0,0h3.2
					c0.1-0.5,0.2-0.9,0.5-1.2c0.3-0.4,0.9-0.6,1.7-0.6c0.7,0,1.2,0.1,1.6,0.3c0.4,0.2,0.5,0.6,0.5,1.1c0,0.4-0.2,0.7-0.7,0.9
					c-0.3,0.1-0.7,0.2-1.3,0.3l0,0L31.3,58c-1.3,0.2-2.3,0.4-2.9,0.8c-1.2,0.7-1.8,1.8-1.8,3.4c0,1.2,0.4,2.1,1.1,2.8
					S29.4,66,30.6,66z M31.6,63.6c-0.5,0-0.8-0.1-1.2-0.4s-0.5-0.7-0.5-1.2c0-0.6,0.3-1.1,0.8-1.4c0.3-0.2,0.8-0.3,1.5-0.5l0,0
					l0.8-0.1c0.4-0.1,0.7-0.1,0.9-0.2s0.4-0.2,0.6-0.3l0,0v1.2c0,1.1-0.3,1.9-0.9,2.3S32.3,63.6,31.6,63.6z M47.7,65.9
					c1.7,0,3-0.7,3.9-2c0.9-1.3,1.4-2.9,1.4-4.9c0-1.9-0.5-3.5-1.4-4.7c-0.9-1.2-2.3-1.8-3.9-1.8c-0.9,0-1.7,0.2-2.3,0.6
					c-0.5,0.3-1,0.8-1.4,1.4l0,0l0-6.1l-3.3,0l0,17.2H44V64c0.4,0.6,0.9,1.1,1.2,1.3C45.8,65.7,46.7,65.9,47.7,65.9z M46.9,63.2
					c-1,0-1.7-0.4-2.2-1.1c-0.5-0.7-0.7-1.6-0.7-2.7c0-0.9,0.1-1.7,0.4-2.3c0.5-1.1,1.3-1.7,2.5-1.7c1.2,0,2,0.6,2.5,1.7
					c0.2,0.6,0.4,1.3,0.4,2.2c0,1.1-0.2,2-0.7,2.7S47.7,63.2,46.9,63.2z"/>
			</g>
		</g>
	</g>
</g>
</svg>
