<?xml version="1.0" encoding="utf-8"?>
<!-- Generator: Adobe Illustrator 22.1.0, SVG Export Plug-In . SVG Version: 6.00 Build 0)  -->
<svg version="1.1" id="Layer_1" xmlns="http://www.w3.org/2000/svg" xmlns:xlink="http://www.w3.org/1999/xlink" x="0px" y="0px"
	 viewBox="0 0 77 49" style="enable-background:new 0 0 77 49;" xml:space="preserve">
<style type="text/css">
	.st0{fill:#F9A83A;}
	.st1{fill:#FFFFFF;}
	.st2{fill:#FF33FF;stroke:#FFFFFF;stroke-width:2;stroke-miterlimit:10;}
	.st3{font-family:'MyriadPro-Regular';}
	.st4{font-size:10.4576px;}
</style>
<g>
	<g>
		<path class="st0" d="M60,32.6c-1.3,0.1-2.1,0.2-2.3,0.3L57.6,33c-0.3,0.1-0.7,0.3-1.2,0.3c-0.6,0-1.3-0.2-1.8-0.7
			c-0.2-0.2-0.4-0.4-0.5-0.6h-2.3c-0.4,0-0.8-0.1-1.1-0.3c-0.1,0.1-0.3,0.1-0.4,0.2c-0.8,0.4-1.5,0.4-2,0.4h-0.5
			c-1.5,0-2.7-0.5-3.5-1.4c-0.5,0.5-1.2,0.8-1.9,0.8l-3.7,0.1c-1.3,0-2.5-1-2.7-2.2c-0.5,0.3-1,0.5-1.6,0.5s-1.2-0.2-1.7-0.5
			c-0.1-0.1-0.2-0.2-0.3-0.2c-0.3,0.2-0.7,0.2-1.1,0.2H31c-0.4,1.2-1.1,2-2.2,2.5c-0.5,0.2-1.1,0.4-1.6,0.4s-1.1-0.1-1.6-0.3
			c-0.5-0.2-0.9-0.5-1.2-0.8c-0.2,0.1-0.4,0.1-0.6,0.2L20.9,32h-0.4c-0.3,0-0.5,0-0.8-0.1c-0.4,0.4-0.9,0.6-1.3,0.8
			c-0.8,0.4-1.5,0.4-2,0.4h-0.5c-1.8,0-3.2-0.8-4-1.9c-0.8,0.5-1.8,0.8-2.7,0.8H8.6c0,0.1-0.1,0.1-0.1,0.2c-0.5,0.5-1.2,0.9-1.9,0.9
			H6.4c-1.4,0-2.6-1.1-2.7-2.6v-0.1c0-0.5-0.1-1.4,0-2.4c0-0.7,0.1-1.8,0.1-1.8c0-0.7,0.3-1.3,0.7-1.8c-0.4-0.8-0.5-1.7-0.3-2.7
			v-0.2c0.1-0.6,0.2-1.5,0.6-2.4c0.7-1.3,2-2,3.5-2H9c0.5-0.4,1.1-0.7,1.8-0.7c1.5,0,2.7,1.3,2.7,2.8v1.1c0.5-0.2,1.1-0.3,1.7-0.3
			c0.3,0,0.5,0,0.8,0.1c0.4-0.5,1-0.8,1.6-0.9c0.1-0.2,0.2-0.3,0.3-0.5c0.4-0.6,1.1-1,1.8-1.1c0.6-0.1,1.8-0.2,3.2-0.2
			c1.6,0,2.9,0.2,3.9,0.7c0.3-1.1,1.1-1.9,2.3-2.1l2.6-0.4h0.4c0.8,0,1.5,0.3,2,0.9c0.2,0.2,0.5,0.6,0.6,0.9l0.1,0.3
			c0.5-0.3,1-0.5,1.6-0.5l3.9-0.1c1.9,0,3.6-0.1,3.6-0.2h0.2c0.7,0,1.5,0.3,2,0.8c0.4,0.4,0.7,0.9,0.8,1.5h0.2c0.3,0,0.5,0,0.8,0.1
			c0.4-0.5,1-0.8,1.6-0.9c0.5-0.7,1.4-1.3,2.4-1.3h2.6c0.5-0.6,1.2-1,2.1-1h3.2c1.5,0,2.7,1.2,2.8,2.7c0,1.1-0.6,2.1-1.5,2.5v6.1
			c0.8,0.4,1.4,1.3,1.5,2.3C62.7,31.2,61.5,32.5,60,32.6z"/>
		<path class="st0" d="M32.3,20.6l-0.7,3.6l2-0.3L32.3,20.6z"/>
		<path class="st1" d="M8.4,24.1c-0.7-0.1-1.1-0.6-0.9-2v-0.2c0.2-1.2,0.3-1.5,0.9-1.5c0.2,0,0.4,0.1,0.6,0.3
			c0.2,0.2,0.6,0.5,0.8,1.1c0.2,0.4,0.2,0.7,0.3,1v0.4c0,0.2,0.2,0.4,0.5,0.5s0.6-0.2,0.7-0.5c0,0,0.2-3.8,0.2-3.9
			c0-0.3-0.3-0.6-0.6-0.6s-0.6,0.3-0.6,0.6v1.1c-0.5-0.5-1.1-1-1.8-1c-1.9-0.3-2.1,1.4-2.2,2.4V22c-0.2,1.9,0.4,3.1,1.9,3.4
			c1.6,0.3,2.7,0.6,2.7,1.6c0,0.4-0.2,0.8-0.6,1.1c-0.4,0.4-1,0.5-1.6,0.4c-0.2,0-0.3-0.1-0.5-0.1c-0.2-0.1-0.8-0.4-1-0.8
			C7.1,27.2,7,26.7,7,26.4v-0.2c0-0.3-0.3-0.6-0.6-0.6s-0.6,0.3-0.6,0.6c0,0,0,1.2-0.1,1.9c-0.1,1.2,0,2.1,0,2.2
			c0,0.3,0.3,0.6,0.6,0.6s0.6-0.3,0.6-0.6v-1.1c0.4,0.3,1,0.6,1.7,0.7c0.9,0.2,1.8-0.1,2.5-0.7c0.6-0.5,1-1.3,1-2
			C12.1,24.7,9.6,24.3,8.4,24.1 M25.2,22.4c-0.1,0.1-0.2,0.2-0.4,0.3c-0.1,0.1-0.4,0.2-0.5,0.2L24,23c-0.4,0.2-1,0.3-1.6,0.4v-2.8
			c1.6,0,3,0.1,3.3,0.6v0.2C25.7,21.6,25.5,22,25.2,22.4 M28.7,27.8c-0.3-0.1-0.7,0.1-0.8,0.4c-0.2,0.7-0.4,0.7-0.5,0.8
			c-0.1,0.1-0.3,0-0.6-0.1c0,0-0.1-0.2-0.2-0.3c-0.1-0.2-0.2-1-0.2-1.5c0-1.8-0.4-2.8-0.9-3.3c0.3-0.2,0.6-0.5,0.6-0.5
			c0.7-1,0.9-1.8,0.5-2.5c-1-1.7-5.3-1.2-6.7-1c-0.3,0-0.6,0.4-0.5,0.7c0,0.3,0.4,0.6,0.7,0.5c0.3,0,0.6-0.1,0.9-0.1v2.8h-0.3
			c-0.3,0-0.6,0.3-0.6,0.6c0,0.3,0.3,0.6,0.6,0.6H21v3.5l-0.8,0.1c-0.3,0-0.6,0.4-0.5,0.7c0,0.3,0.4,0.6,0.7,0.5l2.9-0.4
			c0.3,0,0.6-0.4,0.5-0.7c0-0.3-0.4-0.6-0.7-0.5l-0.9,0.1v-3.5c0.6-0.1,1.1-0.2,1.6-0.4H24c0.2,0,0.4,0.1,0.5,0.3
			c0.2,0.3,0.4,0.9,0.5,2.4c0,0.3,0.1,1.5,0.3,2c0.1,0.2,0.4,0.7,0.9,0.9c0.4,0.1,0.9,0.3,1.5,0c0.5-0.3,0.9-0.6,1.1-1.5
			C29.2,28.2,29,27.9,28.7,27.8 M50.5,25.9c-0.3,0-0.6,0.3-0.6,0.6v0.8c0,0.3-0.1,0.7-0.2,0.8c-0.1,0.2-0.2,0.3-0.4,0.5
			c-0.1,0.1-0.3,0.2-0.5,0.3C48.6,29,48.5,29,48.1,29h-0.4c-1.6,0.1-1.8-1.2-1.8-1.5v-2.6c0.1-1,0.3-1.7,0.7-2
			c0.3-0.2,0.7-0.1,1.4,0.1c0.8,0.3,1.3,1.2,1.4,1.2c0.1,0.2,0.4,0.3,0.7,0.3c0.3-0.1,0.4-0.3,0.4-0.6v-2.7c0-0.3-0.3-0.6-0.6-0.6
			s-0.6,0.3-0.6,0.6v1.1c-0.2-0.2-0.5-0.3-0.8-0.5c-0.3-0.2-1.5-0.7-2.4-0.1c-0.7,0.5-1.2,1.4-1.3,2.9v2.8c0.1,0.9,0.8,2.7,3,2.7
			h0.3c0.4,0,0.8,0,1.2-0.2c0.3-0.1,0.6-0.3,0.9-0.6c0.2-0.2,0.3-0.4,0.5-0.7c0.2-0.4,0.3-1.1,0.4-1.3v-1
			C51.1,26.1,50.8,25.9,50.5,25.9 M60.4,29.9c0-0.3-0.3-0.6-0.6-0.6c-0.2,0-0.5,0-0.8,0.1c0-1,0-3.1-0.1-9.9h0.9
			c0.3,0,0.6-0.3,0.6-0.6c0-0.3-0.3-0.6-0.6-0.6l-3.2,0.1c-0.3,0-0.6,0.3-0.6,0.6s0.3,0.6,0.6,0.6h1v4.2L54,24.4v-3.8h1
			c0.3,0,0.6-0.3,0.6-0.6c0-0.3-0.3-0.6-0.6-0.6h-3.2c-0.3,0-0.6,0.3-0.6,0.6c0,0.3,0.3,0.6,0.6,0.6h1v8.1h-1
			c-0.3,0-0.6,0.3-0.6,0.6s0.3,0.6,0.6,0.6l3.3,0.1c0.3,0,0.6-0.3,0.6-0.6s-0.3-0.6-0.6-0.6h-1v-3.1l3.6-0.6v4.6
			c-0.8,0.2-1.4,0.2-1.7,0.6c-0.2,0.2-0.2,0.6,0.1,0.8c0.2,0.2,0.5,0.1,0.9,0c0.3-0.2,1.5-0.3,2.9-0.4
			C60.2,30.5,60.4,30.2,60.4,29.9"/>
		<path class="st1" d="M31.6,24.2l0.7-3.6l1.3,3.3C33.6,23.9,31.6,24.2,31.6,24.2z M36.9,25.2c-0.2,0.1-0.5,0.2-1.1,0.5L35,23.8
			l-2.3-5.5c0-0.1-0.1-0.3-0.2-0.3c-0.1-0.1-0.3-0.2-0.5-0.2l-2.6,0.3c-0.3,0-0.6,0.3-0.5,0.7c0,0.3,0.3,0.6,0.7,0.5
			c0,0,1-0.1,1.8-0.2c-0.2,1.1-1.1,5.6-1.4,7L28.2,26c-0.3,0-0.6,0.2-0.6,0.6c0,0.3,0.2,0.6,0.6,0.6l3,0.1c0.3,0,0.6-0.2,0.6-0.6
			c0-0.3-0.2-0.6-0.6-0.6l0.1-0.9l2.8-0.5l0.6,1.5c-0.5,0.3-0.7,0.4-1,0.7c-0.2,0.3-0.1,0.6,0.1,0.8c0.3,0.2,0.7,0.1,0.9-0.1
			c0.3-0.4,1.4-0.9,2.5-1.3c0.3-0.1,0.5-0.5,0.4-0.8C37.5,25.3,37.2,25.1,36.9,25.2"/>
		<path class="st1" d="M44.1,19.1c0,0-1.8,0.1-3.8,0.2l-3.9,0.1c-0.2,0-0.3,0.1-0.5,0.2c-0.1,0.1-0.2,0.3-0.1,0.5l0.5,3
			c0,0.3,0.4,0.6,0.7,0.5c0.3,0,0.5-0.3,0.5-0.6c0,0-0.2-1.6-0.4-2.4h2.6v7.9h-1.3c-0.3,0-0.6,0.3-0.6,0.6s0.3,0.6,0.6,0.6l3.7-0.1
			c0.3,0,0.6-0.3,0.6-0.6s-0.3-0.6-0.6-0.6h-1.2v-7.9c1,0,1.9-0.1,2.5-0.1v1.2c0,0.6,0.1,0.8,0.1,0.9c0.2,0.3,0.5,0.4,0.8,0.2
			c0.2-0.1,0.3-0.4,0.3-0.6c0,0,0-1.4,0.1-2.2c0-0.2,0-0.3-0.2-0.5C44.5,19.2,44.3,19.1,44.1,19.1 M18.6,26.5
			c-0.3,0-0.6,0.3-0.6,0.6V28c0,0.2-0.1,0.6-0.2,0.8c-0.1,0.2-0.2,0.3-0.4,0.5c-0.1,0.1-0.3,0.2-0.5,0.3c-0.2,0.1-0.3,0.1-0.7,0.1
			h-0.4c-1.6,0-1.8-1.2-1.8-1.5v-2.6c0.1-1,0.3-1.7,0.7-2c0.3-0.2,0.7-0.1,1.4,0.1c0.8,0.3,1.4,1.2,1.4,1.2c0.1,0.2,0.4,0.3,0.7,0.3
			c0.3-0.1,0.4-0.3,0.4-0.6v-2.7c0-0.3-0.3-0.6-0.6-0.6s-0.6,0.3-0.6,0.6V23c-0.2-0.2-0.5-0.4-0.8-0.5c-0.4-0.2-1.5-0.6-2.5-0.1
			c-0.7,0.5-1.2,1.4-1.3,2.9v2.8c0.1,0.9,0.8,2.7,3.1,2.7h0.3c0.4,0,0.8,0,1.2-0.2c0.3-0.1,0.6-0.3,0.9-0.6c0.2-0.2,0.3-0.4,0.5-0.7
			c0.2-0.4,0.3-1.1,0.4-1.3v-1C19.2,26.8,18.9,26.5,18.6,26.5"/>
	</g>
</g>
<g>
	<g>
		<g>
			<path class="st1" d="M60.2,36.2c-0.8,0.1-1.3,0.1-1.5,0.2c-0.4,0.2-1.3,0.4-2.4,0.4c-1.4,0-2.7-0.5-3.8-1.3h-0.8
				c-0.3,0-0.5,0-0.8-0.1c-1.1,0.4-2.1,0.4-2.7,0.4H48c-1.4,0.1-2.8-0.2-4-0.8c-0.6,0.2-1.1,0.3-1.7,0.3l-3.7,0.1
				c-1.7,0-3.2-0.6-4.4-1.7c-0.5,0-1-0.1-1.4-0.2c-0.6,0.7-1.4,1.3-2.4,1.8c-1.9,0.9-4,1-6,0.2c-0.2-0.1-0.5-0.2-0.7-0.3l-2.3,0.3
				h-0.7c-0.3,0.1-0.5,0.3-0.7,0.4c-1.5,0.7-2.9,0.7-3.5,0.7H16c-1.7,0-3.4-0.5-4.7-1.4c-0.4,0.1-0.9,0.2-1.3,0.2
				c-0.9,0.6-2,1-3.2,1.1H6.4c-3.3,0-6-2.5-6.3-5.8v-0.1c0-0.5-0.1-1.6,0-2.8c0-0.6,0.1-1.5,0.1-1.7c0-0.8,0.2-1.6,0.5-2.4
				c-0.2-0.8-0.1-1.6,0-2.4V21c0.1-0.7,0.3-2.1,1-3.5c1.3-2.4,3.7-3.9,6.4-3.9c0.9-0.5,1.8-0.7,2.8-0.7h0.3c2,0.1,3.8,1.1,4.9,2.7
				c0.9-0.8,2-1.3,3.2-1.5c2.4-0.3,4.4-0.4,6.1-0.1c0.9-0.8,2.1-1.4,3.3-1.5l2.6-0.4h0.8c1.5,0,3,0.6,4.2,1.6h0.2l3.8-0.1
				c1.6,0,3-0.1,3.3-0.1h0.5c1.4,0,2.9,0.5,4,1.4c1.1-0.8,2.4-1.2,3.8-1.2h1.3c1-0.6,2.1-1,3.3-1l3.2-0.1h0.1c3.4,0,6.2,2.8,6.3,6.2
				c0,1.6-0.5,3-1.5,4.2v2.9c0.9,1,1.4,2.3,1.5,3.7C66.3,33,63.7,35.9,60.2,36.2z"/>
		</g>
		<path class="st0" d="M60,32.6c-1.3,0.1-2.1,0.2-2.3,0.3L57.6,33c-0.3,0.1-0.7,0.3-1.2,0.3c-0.6,0-1.3-0.2-1.8-0.7
			c-0.2-0.2-0.4-0.4-0.5-0.6h-2.3c-0.4,0-0.8-0.1-1.1-0.3c-0.1,0.1-0.3,0.1-0.4,0.2c-0.8,0.4-1.5,0.4-2,0.4h-0.5
			c-1.5,0-2.7-0.5-3.5-1.4c-0.5,0.5-1.2,0.8-1.9,0.8l-3.7,0.1c-1.3,0-2.5-1-2.7-2.2c-0.5,0.3-1,0.5-1.6,0.5s-1.2-0.2-1.7-0.5
			c-0.1-0.1-0.2-0.2-0.3-0.2c-0.3,0.2-0.7,0.2-1.1,0.2H31c-0.4,1.2-1.1,2-2.2,2.5c-0.5,0.2-1.1,0.4-1.6,0.4s-1.1-0.1-1.6-0.3
			c-0.5-0.2-0.9-0.5-1.2-0.8c-0.2,0.1-0.4,0.1-0.6,0.2L20.9,32h-0.4c-0.3,0-0.5,0-0.8-0.1c-0.4,0.4-0.9,0.6-1.3,0.8
			c-0.8,0.4-1.5,0.4-2,0.4h-0.5c-1.8,0-3.2-0.8-4-1.9c-0.8,0.5-1.8,0.8-2.7,0.8H8.6c0,0.1-0.1,0.1-0.1,0.2c-0.5,0.5-1.2,0.9-1.9,0.9
			H6.4c-1.4,0-2.6-1.1-2.7-2.6v-0.1c0-0.5-0.1-1.4,0-2.4c0-0.7,0.1-1.8,0.1-1.8c0-0.7,0.3-1.3,0.7-1.8c-0.4-0.8-0.5-1.7-0.3-2.7
			v-0.2c0.1-0.6,0.2-1.5,0.6-2.4c0.7-1.3,2-2,3.5-2H9c0.5-0.4,1.1-0.7,1.8-0.7c1.5,0,2.7,1.3,2.7,2.8v1.1c0.5-0.2,1.1-0.3,1.7-0.3
			c0.3,0,0.5,0,0.8,0.1c0.4-0.5,1-0.8,1.6-0.9c0.1-0.2,0.2-0.3,0.3-0.5c0.4-0.6,1.1-1,1.8-1.1c0.6-0.1,1.8-0.2,3.2-0.2
			c1.6,0,2.9,0.2,3.9,0.7c0.3-1.1,1.1-1.9,2.3-2.1l2.6-0.4h0.4c0.8,0,1.5,0.3,2,0.9c0.2,0.2,0.5,0.6,0.6,0.9l0.1,0.3
			c0.5-0.3,1-0.5,1.6-0.5l3.9-0.1c1.9,0,3.6-0.1,3.6-0.2h0.2c0.7,0,1.5,0.3,2,0.8c0.4,0.4,0.7,0.9,0.8,1.5h0.2c0.3,0,0.5,0,0.8,0.1
			c0.4-0.5,1-0.8,1.6-0.9c0.5-0.7,1.4-1.3,2.4-1.3h2.6c0.5-0.6,1.2-1,2.1-1h3.2c1.5,0,2.7,1.2,2.8,2.7c0,1.1-0.6,2.1-1.5,2.5v6.1
			c0.8,0.4,1.4,1.3,1.5,2.3C62.7,31.2,61.5,32.5,60,32.6z"/>
		<path class="st0" d="M32.3,20.6l-0.7,3.6l2-0.3L32.3,20.6z"/>
		<path class="st1" d="M8.4,24.1c-0.7-0.1-1.1-0.6-0.9-2v-0.2c0.2-1.2,0.3-1.5,0.9-1.5c0.2,0,0.4,0.1,0.6,0.3
			c0.2,0.2,0.6,0.5,0.8,1.1c0.2,0.4,0.2,0.7,0.3,1v0.4c0,0.2,0.2,0.4,0.5,0.5s0.6-0.2,0.7-0.5c0,0,0.2-3.8,0.2-3.9
			c0-0.3-0.3-0.6-0.6-0.6s-0.6,0.3-0.6,0.6v1.1c-0.5-0.5-1.1-1-1.8-1c-1.9-0.3-2.1,1.4-2.2,2.4V22c-0.2,1.9,0.4,3.1,1.9,3.4
			c1.6,0.3,2.7,0.6,2.7,1.6c0,0.4-0.2,0.8-0.6,1.1c-0.4,0.4-1,0.5-1.6,0.4c-0.2,0-0.3-0.1-0.5-0.1c-0.2-0.1-0.8-0.4-1-0.8
			C7.1,27.2,7,26.7,7,26.4v-0.2c0-0.3-0.3-0.6-0.6-0.6s-0.6,0.3-0.6,0.6c0,0,0,1.2-0.1,1.9c-0.1,1.2,0,2.1,0,2.2
			c0,0.3,0.3,0.6,0.6,0.6s0.6-0.3,0.6-0.6v-1.1c0.4,0.3,1,0.6,1.7,0.7c0.9,0.2,1.8-0.1,2.5-0.7c0.6-0.5,1-1.3,1-2
			C12.1,24.7,9.6,24.3,8.4,24.1 M25.2,22.4c-0.1,0.1-0.2,0.2-0.4,0.3c-0.1,0.1-0.4,0.2-0.5,0.2L24,23c-0.4,0.2-1,0.3-1.6,0.4v-2.8
			c1.6,0,3,0.1,3.3,0.6v0.2C25.7,21.6,25.5,22,25.2,22.4 M28.7,27.8c-0.3-0.1-0.7,0.1-0.8,0.4c-0.2,0.7-0.4,0.7-0.5,0.8
			c-0.1,0.1-0.3,0-0.6-0.1c0,0-0.1-0.2-0.2-0.3c-0.1-0.2-0.2-1-0.2-1.5c0-1.8-0.4-2.8-0.9-3.3c0.3-0.2,0.6-0.5,0.6-0.5
			c0.7-1,0.9-1.8,0.5-2.5c-1-1.7-5.3-1.2-6.7-1c-0.3,0-0.6,0.4-0.5,0.7c0,0.3,0.4,0.6,0.7,0.5c0.3,0,0.6-0.1,0.9-0.1v2.8h-0.3
			c-0.3,0-0.6,0.3-0.6,0.6c0,0.3,0.3,0.6,0.6,0.6H21v3.5l-0.8,0.1c-0.3,0-0.6,0.4-0.5,0.7c0,0.3,0.4,0.6,0.7,0.5l2.9-0.4
			c0.3,0,0.6-0.4,0.5-0.7c0-0.3-0.4-0.6-0.7-0.5l-0.9,0.1v-3.5c0.6-0.1,1.1-0.2,1.6-0.4H24c0.2,0,0.4,0.1,0.5,0.3
			c0.2,0.3,0.4,0.9,0.5,2.4c0,0.3,0.1,1.5,0.3,2c0.1,0.2,0.4,0.7,0.9,0.9c0.4,0.1,0.9,0.3,1.5,0c0.5-0.3,0.9-0.6,1.1-1.5
			C29.2,28.2,29,27.9,28.7,27.8 M50.5,25.9c-0.3,0-0.6,0.3-0.6,0.6v0.8c0,0.3-0.1,0.7-0.2,0.8c-0.1,0.2-0.2,0.3-0.4,0.5
			c-0.1,0.1-0.3,0.2-0.5,0.3C48.6,29,48.5,29,48.1,29h-0.4c-1.6,0.1-1.8-1.2-1.8-1.5v-2.6c0.1-1,0.3-1.7,0.7-2
			c0.3-0.2,0.7-0.1,1.4,0.1c0.8,0.3,1.3,1.2,1.4,1.2c0.1,0.2,0.4,0.3,0.7,0.3c0.3-0.1,0.4-0.3,0.4-0.6v-2.7c0-0.3-0.3-0.6-0.6-0.6
			s-0.6,0.3-0.6,0.6v1.1c-0.2-0.2-0.5-0.3-0.8-0.5c-0.3-0.2-1.5-0.7-2.4-0.1c-0.7,0.5-1.2,1.4-1.3,2.9v2.8c0.1,0.9,0.8,2.7,3,2.7
			h0.3c0.4,0,0.8,0,1.2-0.2c0.3-0.1,0.6-0.3,0.9-0.6c0.2-0.2,0.3-0.4,0.5-0.7c0.2-0.4,0.3-1.1,0.4-1.3v-1
			C51.1,26.1,50.8,25.9,50.5,25.9 M60.4,29.9c0-0.3-0.3-0.6-0.6-0.6c-0.2,0-0.5,0-0.8,0.1c0-1,0-3.1-0.1-9.9h0.9
			c0.3,0,0.6-0.3,0.6-0.6c0-0.3-0.3-0.6-0.6-0.6l-3.2,0.1c-0.3,0-0.6,0.3-0.6,0.6s0.3,0.6,0.6,0.6h1v4.2L54,24.4v-3.8h1
			c0.3,0,0.6-0.3,0.6-0.6c0-0.3-0.3-0.6-0.6-0.6h-3.2c-0.3,0-0.6,0.3-0.6,0.6c0,0.3,0.3,0.6,0.6,0.6h1v8.1h-1
			c-0.3,0-0.6,0.3-0.6,0.6s0.3,0.6,0.6,0.6l3.3,0.1c0.3,0,0.6-0.3,0.6-0.6s-0.3-0.6-0.6-0.6h-1v-3.1l3.6-0.6v4.6
			c-0.8,0.2-1.4,0.2-1.7,0.6c-0.2,0.2-0.2,0.6,0.1,0.8c0.2,0.2,0.5,0.1,0.9,0c0.3-0.2,1.5-0.3,2.9-0.4
			C60.2,30.5,60.4,30.2,60.4,29.9"/>
		<path class="st1" d="M31.6,24.2l0.7-3.6l1.3,3.3C33.6,23.9,31.6,24.2,31.6,24.2z M36.9,25.2c-0.2,0.1-0.5,0.2-1.1,0.5L35,23.8
			l-2.3-5.5c0-0.1-0.1-0.3-0.2-0.3c-0.1-0.1-0.3-0.2-0.5-0.2l-2.6,0.3c-0.3,0-0.6,0.3-0.5,0.7c0,0.3,0.3,0.6,0.7,0.5
			c0,0,1-0.1,1.8-0.2c-0.2,1.1-1.1,5.6-1.4,7L28.2,26c-0.3,0-0.6,0.2-0.6,0.6c0,0.3,0.2,0.6,0.6,0.6l3,0.1c0.3,0,0.6-0.2,0.6-0.6
			c0-0.3-0.2-0.6-0.6-0.6l0.1-0.9l2.8-0.5l0.6,1.5c-0.5,0.3-0.7,0.4-1,0.7c-0.2,0.3-0.1,0.6,0.1,0.8c0.3,0.2,0.7,0.1,0.9-0.1
			c0.3-0.4,1.4-0.9,2.5-1.3c0.3-0.1,0.5-0.5,0.4-0.8C37.5,25.3,37.2,25.1,36.9,25.2"/>
		<path class="st1" d="M44.1,19.1c0,0-1.8,0.1-3.8,0.2l-3.9,0.1c-0.2,0-0.3,0.1-0.5,0.2c-0.1,0.1-0.2,0.3-0.1,0.5l0.5,3
			c0,0.3,0.4,0.6,0.7,0.5c0.3,0,0.5-0.3,0.5-0.6c0,0-0.2-1.6-0.4-2.4h2.6v7.9h-1.3c-0.3,0-0.6,0.3-0.6,0.6s0.3,0.6,0.6,0.6l3.7-0.1
			c0.3,0,0.6-0.3,0.6-0.6s-0.3-0.6-0.6-0.6h-1.2v-7.9c1,0,1.9-0.1,2.5-0.1v1.2c0,0.6,0.1,0.8,0.1,0.9c0.2,0.3,0.5,0.4,0.8,0.2
			c0.2-0.1,0.3-0.4,0.3-0.6c0,0,0-1.4,0.1-2.2c0-0.2,0-0.3-0.2-0.5C44.5,19.2,44.3,19.1,44.1,19.1 M18.6,26.5
			c-0.3,0-0.6,0.3-0.6,0.6V28c0,0.2-0.1,0.6-0.2,0.8c-0.1,0.2-0.2,0.3-0.4,0.5c-0.1,0.1-0.3,0.2-0.5,0.3c-0.2,0.1-0.3,0.1-0.7,0.1
			h-0.4c-1.6,0-1.8-1.2-1.8-1.5v-2.6c0.1-1,0.3-1.7,0.7-2c0.3-0.2,0.7-0.1,1.4,0.1c0.8,0.3,1.4,1.2,1.4,1.2c0.1,0.2,0.4,0.3,0.7,0.3
			c0.3-0.1,0.4-0.3,0.4-0.6v-2.7c0-0.3-0.3-0.6-0.6-0.6s-0.6,0.3-0.6,0.6V23c-0.2-0.2-0.5-0.4-0.8-0.5c-0.4-0.2-1.5-0.6-2.5-0.1
			c-0.7,0.5-1.2,1.4-1.3,2.9v2.8c0.1,0.9,0.8,2.7,3.1,2.7h0.3c0.4,0,0.8,0,1.2-0.2c0.3-0.1,0.6-0.3,0.9-0.6c0.2-0.2,0.3-0.4,0.5-0.7
			c0.2-0.4,0.3-1.1,0.4-1.3v-1C19.2,26.8,18.9,26.5,18.6,26.5"/>
	</g>
</g>
<path class="st2" d="M71.2,37.5l-17,3.8c-2.2,0.5-4.3-0.9-4.8-3.1l-1.1-5c-0.5-2.2,0.9-4.3,3.1-4.8l17-3.8c2.2-0.5,4.3,0.9,4.8,3.1
	l1.1,5C74.8,34.8,73.4,37,71.2,37.5z"/>
<text transform="matrix(0.9773 -0.2117 0.2117 0.9773 52.7994 39.2938)" class="st1 st3 st4">bleb</text>
</svg>
